<svg xmlns="http://www.w3.org/2000/svg" xmlns:xlink="http://www.w3.org/1999/xlink" viewBox="0 0 386.42 386.42"><defs><style>.cls-1{fill:#0d1925;}.cls-2,.cls-3,.cls-5{opacity:0.75;}.cls-2{fill:url(#linear-gradient);}.cls-3{fill:url(#linear-gradient-2);}.cls-11,.cls-4{fill:#b64dff;}.cls-4{opacity:0.35;}.cls-5{fill:url(#linear-gradient-3);}.cls-6{fill:#7b00ff;}.cls-7,.cls-8,.cls-9{opacity:0.5;}.cls-7{fill:url(#linear-gradient-4);}.cls-8{fill:url(#linear-gradient-5);}.cls-9{fill:url(#linear-gradient-6);}.cls-10{fill:#9c3aef;}.cls-12{fill:#c370fc;}.cls-13{fill:#d49cff;}.cls-14{fill:#ff0;}.cls-15{fill:#bf84f4;}.cls-16{fill:url(#linear-gradient-7);}.cls-17{fill:url(#linear-gradient-8);}.cls-18{fill:url(#linear-gradient-9);}.cls-19{fill:url(#linear-gradient-10);}.cls-20{fill:url(#linear-gradient-11);}.cls-21{fill:url(#linear-gradient-12);}.cls-22{fill:#fcee21;}</style><linearGradient id="linear-gradient" x1="77.71" y1="289.35" x2="77.71" y2="224.62" gradientUnits="userSpaceOnUse"><stop offset="0" stop-opacity="0"/><stop offset="0.33" stop-color="#020202" stop-opacity="0.01"/><stop offset="0.49" stop-color="#0a0a0a" stop-opacity="0.06"/><stop offset="0.61" stop-color="#171717" stop-opacity="0.15"/><stop offset="0.71" stop-color="#292929" stop-opacity="0.27"/><stop offset="0.8" stop-color="#414141" stop-opacity="0.43"/><stop offset="0.89" stop-color="#5e5e5e" stop-opacity="0.63"/><stop offset="0.96" stop-color="#818181" stop-opacity="0.86"/><stop offset="1" stop-color="#969696"/></linearGradient><linearGradient id="linear-gradient-2" x1="185.79" y1="304.81" x2="185.79" y2="223.1" gradientUnits="userSpaceOnUse"><stop offset="0.63" stop-opacity="0"/><stop offset="1" stop-color="#c6c6c6"/></linearGradient><linearGradient id="linear-gradient-3" x1="303.04" y1="318.77" x2="303.04" y2="224.56" xlink:href="#linear-gradient-2"/><linearGradient id="linear-gradient-4" x1="117.4" y1="290.98" x2="117.4" y2="221.01" gradientUnits="userSpaceOnUse"><stop offset="0.26" stop-color="#b64dff" stop-opacity="0"/><stop offset="0.37" stop-color="#b64dff" stop-opacity="0.01"/><stop offset="0.46" stop-color="#b64dff" stop-opacity="0.06"/><stop offset="0.55" stop-color="#b64dff" stop-opacity="0.13"/><stop offset="0.64" stop-color="#b64dff" stop-opacity="0.22"/><stop offset="0.72" stop-color="#b64dff" stop-opacity="0.35"/><stop offset="0.81" stop-color="#b64dff" stop-opacity="0.51"/><stop offset="0.89" stop-color="#b64dff" stop-opacity="0.69"/><stop offset="0.97" stop-color="#b64dff" stop-opacity="0.9"/><stop offset="1" stop-color="#b64dff"/></linearGradient><linearGradient id="linear-gradient-5" x1="265.94" y1="281.1" x2="265.94" y2="227.28" xlink:href="#linear-gradient-4"/><linearGradient id="linear-gradient-6" x1="340.87" y1="281.1" x2="340.87" y2="227.28" xlink:href="#linear-gradient-4"/><linearGradient id="linear-gradient-7" x1="136.42" y1="183.53" x2="153.23" y2="183.53" gradientUnits="userSpaceOnUse"><stop offset="0" stop-color="#fff" stop-opacity="0"/><stop offset="1" stop-color="#fed415"/></linearGradient><linearGradient id="linear-gradient-8" x1="149" y1="187.31" x2="168.14" y2="187.31" xlink:href="#linear-gradient-7"/><linearGradient id="linear-gradient-9" x1="165.82" y1="191.98" x2="181.71" y2="191.98" xlink:href="#linear-gradient-7"/><linearGradient id="linear-gradient-10" x1="579.87" y1="183.53" x2="596.69" y2="183.53" gradientTransform="matrix(-1, 0, 0, 1, 829.88, 0)" xlink:href="#linear-gradient-7"/><linearGradient id="linear-gradient-11" x1="592.46" y1="187.31" x2="611.6" y2="187.31" gradientTransform="matrix(-1, 0, 0, 1, 829.88, 0)" xlink:href="#linear-gradient-7"/><linearGradient id="linear-gradient-12" x1="609.28" y1="191.98" x2="625.16" y2="191.98" gradientTransform="matrix(-1, 0, 0, 1, 829.88, 0)" xlink:href="#linear-gradient-7"/></defs><g id="Calque_2" data-name="Calque 2"><g id="Layer_1" data-name="Layer 1"><circle class="cls-1" cx="193.2" cy="193.21" r="175.81"/><path class="cls-2" d="M20.45,224.62l9,34.83,8.09,13.28L43,283.85l-3.55-7.31,11.16,3v-7.26S60.17,275,69.3,270v12.28H88v-9.12h12.18v-7.81h13v24H135V224.62Z"/><path class="cls-3" d="M137.88,223.1v79.83h14.34V292.36h10.85v-9.15a15.7,15.7,0,0,0,15.68-2.82v15.49h15.69v-11.5h10.18v-9.86h10.86v30.29h18.23V223.1Z"/><path class="cls-4" d="M20.45,217.4V154.15H37.59v8.37h13v7.26S60.17,167,69.3,172V159.73H88v9.12h12.18v7.81h13v-24H135V217.4Z"/><path class="cls-4" d="M137.88,218.92V139.09h14.34v10.57h10.85v9.15a15.7,15.7,0,0,1,15.68,2.82V146.14h15.69v11.5h10.18v9.86h10.86V137.21h18.23v81.71Z"/><path class="cls-4" d="M367.75,160.6v58.32H238.33V139.09h19v10.57h14.38v9.15s10.66-3.51,20.78,2.83v-15.5h20.8v11.5h13.5v9.87h14.4V137.22h20.51A172,172,0,0,1,367.75,160.6Z"/><path class="cls-5" d="M238.33,279.33V221H367.75L363.17,238l-15,38.83-3.43,7.07-3,3.24-7.38,3.19v-9.16s-10.67,3.51-20.78-2.83v15.5h-20.8v-11.5h-13.5v-9.87h-14.4v30.3H244.35A174,174,0,0,1,238.33,279.33Z"/><path class="cls-6" d="M19.31,217.59H26.7V202.94h4.53v-3.87h2.69v4.14h6.77v7.22h5.45v-5.52H55v5.65h2.43v6.51h3.75v-2.5h3.22v2.56H67.3V187.44h4.79v-14l15.24-2.7.59,3.35,2.37,6.44-2,14.78L92,217.07h4.92V188.36H134.3v28.31h1.84v-1.9h1.65v2.17H142v-50l9.79-15.9h2.36v15.44l8.28,6.57v34h2.63v-6.3h1.38V183l2-2H173V170.49l2.13-2.13,11.34-1.15,1.05,1.24v13.6h5.06l2.76,1.38v21.94h4.86l4.14-19.51s2-6.44,11.16-6.44V221H19.31Z"/><path class="cls-7" d="M19.31,224.43H26.7v14.65h4.53V243h2.69v-4.14h6.77v-7.22h5.45v5.51H55v-5.64h2.43V225h3.75v2.5h3.22v-2.56H67.3v29.69h4.79v14l15.24,2.7.59-3.35,2.37-6.44-2-14.78L92,225h4.92v28.71H134.3V225.35h1.84v1.9h1.65v-2.17H142v50l9.79,15.9h2.36V275.54l8.28-6.57v-34h2.63v6.3h1.38v17.81l2,2H173v10.51l2.13,2.13,11.34,1.15,1.05-1.24V260h5.06l2.76-1.38V236.65h4.86l4.14,19.51s2,6.43,11.16,6.43V221H19.31Z"/><path class="cls-6" d="M329.83,56.59a193.21,193.21,0,1,0,56.59,136.62A192.64,192.64,0,0,0,329.83,56.59ZM322,322a182.14,182.14,0,1,1,53.36-128.8A181.55,181.55,0,0,1,322,322Z"/><polygon class="cls-6" points="316.37 221.01 316.37 206.11 312.36 206.11 312.36 158.93 296.72 158.93 296.72 182.68 286.27 182.68 286.27 162.13 277.77 162.13 277.77 160.04 258.12 160.04 258.12 175.95 249.82 175.95 246.77 179 246.77 156.3 231 156.3 231 175.54 224.91 170.56 215.5 170.56 215.5 221.01 316.37 221.01"/><polygon class="cls-6" points="357.67 217.45 357.67 176.53 352.94 176.53 352.94 172.49 350.13 172.49 350.13 176.8 343.07 176.8 343.07 184.34 337.39 184.34 337.39 178.59 328.14 178.59 328.14 184.48 325.6 184.48 325.6 216.9 321.7 216.9 321.7 188.66 318.34 188.66 318.34 216.97 316.37 216.97 316.37 221.01 365.38 221.01 365.38 217.45 357.67 217.45"/><polygon class="cls-8" points="316.37 221.01 316.37 235.91 312.36 235.91 312.36 283.09 296.72 283.09 296.72 259.34 286.27 259.34 286.27 279.89 277.77 279.89 277.77 281.98 258.12 281.98 258.12 266.07 249.82 266.07 246.77 263.02 246.77 285.71 231 285.71 231 266.48 224.91 271.46 215.5 271.46 215.5 221.01 316.37 221.01"/><polygon class="cls-9" points="357.67 224.57 357.67 265.49 352.94 265.49 352.94 269.53 350.13 269.53 350.13 265.22 343.07 265.22 343.07 257.68 337.39 257.68 337.39 263.43 328.14 263.43 328.14 257.54 325.6 257.54 325.6 225.12 321.7 225.12 321.7 253.36 318.34 253.36 318.34 225.05 316.37 225.05 316.37 221.01 365.38 221.01 365.38 224.57 357.67 224.57"/><path class="cls-10" d="M255.92,354.4,247,299.08l-.53-3.24-4.57-28.3v0l-1.3-8.07,0,0v0l-3,.45.15.87.17,1.05h-.08l-.07,0-5,8.7v0l-16.63,29.1L205.7,290,197.15,282l-2.42-2.25v-6h-3v6L189.26,282,180.71,290l-10.42,9.64-16.65-29.1v0l-5-8.7,0,0h-.08l.15-1.05.15-.87-3-.45-1.32,8.07v0L140,295.84l-.53,3.24-8.94,55.36-.76,4.62c.94.38,1.91.74,2.87,1.08l.75-4.62,2.8-17.33,18.44,22.5,1.19,1.41,3.79,4.48h8.63l2.43-1.89,21.06-16.29v18.18h3V348.4l21.07,16.31,2.41,1.87h4.95L220,364.1l-23.33-18,0,0,52.7-11.57,0,.06-20.65,25.21L226,363.05l-2.89,3.53H227l3.68-4.5,1.15-1.39,18.42-22.5,2.79,17.31.76,4.62c1-.34,1.91-.68,2.87-1.06Zm-41.31-52.15-19.88,34.83V283.85Zm-22.92-18.4v53.23L171.8,302.25Zm-44.24-15.36v0l.34-2.15,1.59,2.77,0,0L168,301.72l-12.21,11.33-18.35,17Zm19,95.61-3.08,2.38-2.9-3.43-2.82-3.31L137,334.53l0-.06L189.77,346l0,0ZM139.7,332l29.84-27.65,22.15,38.78v.32Zm55,11.45v-.32l22.16-38.78L246.73,332Zm35.88-30.42-12.23-11.33L237,269.11h0v0l1.59-2.77.35,2.15v0l10,61.53Z"/><polygon class="cls-11" points="265.31 212.45 265.31 245.45 193.21 268.79 193.21 235.5 264.86 212.3 265.31 212.45"/><polygon class="cls-6" points="264.86 126.99 193.21 150.19 121.56 126.99 193.21 103.79 264.86 126.99"/><polygon class="cls-12" points="265.31 127.14 265.31 160.14 193.21 183.48 193.21 150.19 264.86 126.99 265.31 127.14"/><polygon class="cls-11" points="193.21 150.19 193.21 183.48 121.11 160.14 121.11 127.14 121.56 126.99 193.21 150.19"/><polygon class="cls-6" points="253.21 208.53 193.21 227.95 133.21 208.53 121.56 212.3 193.21 235.5 264.86 212.3 253.21 208.53"/><polygon class="cls-13" points="253.39 163.12 193.21 182.77 193.21 228.52 253.77 208.74 253.77 163.24 253.39 163.12"/><polygon class="cls-14" points="215.63 202.97 204.71 206.54 204.71 187.94 215.63 184.37 215.63 202.97"/><polygon class="cls-14" points="230.54 198.11 218.28 202.11 218.28 183.51 230.54 179.51 230.54 198.11"/><polygon class="cls-14" points="244.1 193.68 233.18 197.24 233.18 178.64 244.1 175.08 244.1 193.68"/><polygon class="cls-15" points="133.03 163.12 132.65 163.24 132.65 208.74 193.21 228.52 193.21 182.77 133.03 163.12"/><polygon class="cls-14" points="153.24 197.24 142.32 193.68 142.32 175.08 153.24 178.64 153.24 197.24"/><polygon class="cls-14" points="168.14 202.11 155.88 198.11 155.88 179.51 168.14 183.51 168.14 202.11"/><polygon class="cls-14" points="181.71 206.54 170.79 202.97 170.79 184.37 181.71 187.94 181.71 206.54"/><polygon class="cls-16" points="153.24 197.24 136.42 198.28 136.42 168.79 153.24 178.64 153.24 197.24"/><polygon class="cls-17" points="168.14 202.11 149 203.24 149 171.37 168.14 183.51 168.14 202.11"/><polygon class="cls-18" points="181.71 206.54 165.82 206.54 165.82 177.42 181.71 187.94 181.71 206.54"/><polygon class="cls-19" points="233.18 178.64 250 168.79 250 198.28 233.18 197.24 233.18 178.64"/><polygon class="cls-20" points="218.28 183.51 237.41 171.37 237.41 203.24 218.28 202.11 218.28 183.51"/><polygon class="cls-21" points="204.71 187.94 220.6 177.42 220.6 206.54 204.71 206.54 204.71 187.94"/><polygon class="cls-13" points="193.21 283.29 257.44 262.5 257.44 247.99 193.21 268.79 193.21 283.29"/><polygon class="cls-11" points="128.97 247.99 128.97 262.5 193.21 283.29 193.21 268.79 128.97 247.99"/><polygon class="cls-12" points="193.21 235.5 193.21 268.79 121.11 245.45 121.11 212.45 121.56 212.3 193.21 235.5"/><path class="cls-22" d="M367.75,160.6a172,172,0,0,0-6-23.38,177.57,177.57,0,1,0-232,221.84c.94.38,1.91.74,2.87,1.08a174.72,174.72,0,0,0,26.78,7.4h0a178.42,178.42,0,0,0,57,1.72c1-.14,2.08-.27,3.12-.44,2.58-.38,5.15-.83,7.7-1.32h0a171.42,171.42,0,0,0,19-4.79c1.06-.32,2.06-.64,3.08-1,1.51-.51,3-1,4.53-1.59,1-.34,1.91-.68,2.87-1.06,1.79-.68,3.57-1.39,5.34-2.15,3.91-1.62,7.72-3.39,11.48-5.3,2.26-1.13,4.53-2.36,6.73-3.61,1-.58,2-1.15,3-1.75l0,0c.93-.55,1.87-1.1,2.78-1.66s1.56-1,2.34-1.49c2.36-1.47,4.7-3,7-4.66a176.81,176.81,0,0,0,25.93-22.29c.7-.72,1.4-1.44,2.06-2.21,3.53-3.8,6.91-7.78,10.12-11.87.85-1.1,1.68-2.21,2.51-3.35a177.8,177.8,0,0,0,31.74-138.1Zm-3.49,58.32A172.06,172.06,0,0,1,335,292.21c-.8,1.17-1.65,2.34-2.51,3.49A164.42,164.42,0,0,1,320,310.75c-.64.73-1.34,1.47-2.06,2.19l-2.49,2.56a172.22,172.22,0,0,1-32.22,25.37c-1.64,1-3.3,2-5,2.92a168.08,168.08,0,0,1-22.39,10.61c-.94.4-1.9.76-2.87,1.1q-3.39,1.28-6.85,2.37c-1,.36-2,.68-3.07,1q-6.12,1.83-12.44,3.22c-1.55.34-3.1.68-4.66,1-1.93.37-3.85.71-5.8,1l-.28,0c-.94.15-1.89.31-2.83.44l-1.34.17a175.78,175.78,0,0,1-21.07,1.45H193.2c-.5,0-1,0-1.51,0a172.26,172.26,0,0,1-21.06-1.45c-1.4-.17-2.79-.36-4.17-.59-2-.3-4-.66-6-1.05-1.59-.29-3.16-.61-4.7-.95a171.79,171.79,0,0,1-22.43-6.58c-1-.34-1.92-.72-2.86-1.08A172.94,172.94,0,1,1,348.56,117.1c.45.92.89,1.85,1.3,2.79q2.14,4.5,4,9.17c1.08,2.68,2.08,5.4,3,8.16a173.56,173.56,0,0,1,7.38,81.7Z"/></g></g></svg>